PathFileType	4	(X/Y/Z)	C:\Users\u0088756\Documents\documenten\fwo_project_balance\Data\SyncDataCardiff_Elderly\osimData\pp_3\Static.trc
DataRate	CameraRate	NumFrames	NumMarkers	Units	OrigDataRate	OrigDataStartFrame	OrigNumFrames
200.000000	200.000000	9	50	m	200.000000	1	733
Frame#	Times	LASI			RASI			LPSI			RPSI			RKNE			RKNEmed			RTHI			RTHI2			RTHI3			RANK			RANKmed			RTIB			RTIB2			RTIB3			RTOE			RHEE			RLatFoot			LKNE			LKNEmed			LTHI			LTHI2			LTHI3			LANK			LANKmed			LTIB			LTIB2			LTIB3			LTOE			LHEE			LLatFoot			Block1			Block2			Block3			Block4			CLAV			RSHO			LSHO			C7			LELB			LUA1			LWRA			LWRB			LLA1			LFIN			RELB			RUA1			RWRA			RWRB			RLA1			RFIN
		X1	Y1	Z1	X2	Y2	Z2	X3	Y3	Z3	X4	Y4	Z4	X5	Y5	Z5	X6	Y6	Z6	X7	Y7	Z7	X8	Y8	Z8	X9	Y9	Z9	X10	Y10	Z10	X11	Y11	Z11	X12	Y12	Z12	X13	Y13	Z13	X14	Y14	Z14	X15	Y15	Z15	X16	Y16	Z16	X17	Y17	Z17	X18	Y18	Z18	X19	Y19	Z19	X20	Y20	Z20	X21	Y21	Z21	X22	Y22	Z22	X23	Y23	Z23	X24	Y24	Z24	X25	Y25	Z25	X26	Y26	Z26	X27	Y27	Z27	X28	Y28	Z28	X29	Y29	Z29	X30	Y30	Z30	X31	Y31	Z31	X32	Y32	Z32	X33	Y33	Z33	X34	Y34	Z34	X35	Y35	Z35	X36	Y36	Z36	X37	Y37	Z37	X38	Y38	Z38	X39	Y39	Z39	X40	Y40	Z40	X41	Y41	Z41	X42	Y42	Z42	X43	Y43	Z43	X44	Y44	Z44	X45	Y45	Z45	X46	Y46	Z46	X47	Y47	Z47	X48	Y48	Z48	X49	Y49	Z49	X50	Y50	Z50

1	0.005	-0.16391	0.99941	-0.13122	-0.17659	0.99254	0.063697	-0.41291	0.96121	-0.095904	-0.40706	0.96256	-0.0044594	-0.29559	0.49797	0.11537	-0.27039	0.48758	0.0097414	-0.24914	0.69115	0.13951	-0.31715	0.68813	0.13097	-0.2787	0.64511	0.13614	-0.33601	0.11342	0.11503	-0.30092	0.1139	0.04198	-0.27025	0.2979	0.095177	-0.32328	0.30436	0.13784	-0.29843	0.25944	0.12406	-0.15509	0.053915	0.10986	-0.38536	0.040352	0.07116	-0.2996	0.036056	0.1597	-0.3217	0.50383	-0.19898	-0.29115	0.49217	-0.080751	-0.28698	0.66927	-0.21823	-0.34206	0.65635	-0.18647	-0.30368	0.61455	-0.20596	-0.32469	0.12089	-0.20121	-0.29806	0.11239	-0.12839	-0.2707	0.31623	-0.17164	-0.31699	0.31239	-0.21838	-0.28879	0.2669	-0.19875	-0.17954	0.055927	-0.18803	-0.3822	0.044944	-0.14661	-0.26347	0.03036	-0.2699	0.4796	0.045341	-0.63449	-0.36806	0.036812	-0.63312	-0.40104	0.033388	0.6295	0.51643	0.049349	0.61824	-0.22664	1.3737	-0.03555	-0.32061	1.3861	0.15656	-0.32806	1.4004	-0.23446	-0.34359	1.487	-0.040761	-0.31315	1.0772	-0.27979	-0.30304	1.1703	-0.26703	-0.19966	0.82566	-0.24688	-0.25839	0.81692	-0.29462	-0.24196	0.94237	-0.28456	-0.19832	0.77855	-0.29831	-0.31612	1.0721	0.21076	-0.30305	1.1899	0.19163	-0.18677	0.82064	0.19054	-0.25706	0.80922	0.21959	-0.24773	0.95602	0.22161	-0.20455	0.76875	0.23767
2	0.01	-0.16382	0.99941	-0.13119	-0.17654	0.99252	0.063689	-0.41284	0.96121	-0.095969	-0.40702	0.96258	-0.0045143	-0.29579	0.49801	0.11516	-0.2705	0.48759	0.0096913	-0.24922	0.69114	0.13947	-0.31721	0.68814	0.13091	-0.27876	0.64511	0.13608	-0.33602	0.11342	0.11502	-0.30091	0.11391	0.042013	-0.27028	0.29793	0.095241	-0.32337	0.30437	0.13782	-0.29851	0.25946	0.12403	-0.1552	0.053956	0.10975	-0.3854	0.040361	0.071183	-0.29961	0.036047	0.15972	-0.32165	0.50385	-0.19902	-0.29111	0.49216	-0.080744	-0.28687	0.66925	-0.2182	-0.34195	0.65639	-0.18636	-0.30362	0.61446	-0.20591	-0.3247	0.12088	-0.20121	-0.29807	0.11238	-0.1284	-0.27065	0.31621	-0.17164	-0.31689	0.31238	-0.21838	-0.28877	0.26689	-0.19877	-0.17955	0.05592	-0.188	-0.38224	0.04494	-0.14657	-0.26351	0.03036	-0.26991	0.4796	0.045368	-0.6345	-0.36807	0.036835	-0.63312	-0.40104	0.033392	0.6295	0.51645	0.049367	0.61819	-0.22658	1.3737	-0.035526	-0.3206	1.386	0.15654	-0.32799	1.4004	-0.23446	-0.34354	1.487	-0.040802	-0.31296	1.0772	-0.27979	-0.3029	1.1703	-0.26705	-0.19946	0.82564	-0.24688	-0.25817	0.8169	-0.29462	-0.24182	0.94236	-0.28457	-0.19812	0.77851	-0.29827	-0.3161	1.072	0.21071	-0.30306	1.1899	0.19164	-0.18673	0.82062	0.19052	-0.25709	0.8092	0.21957	-0.24767	0.95599	0.22162	-0.20453	0.76872	0.23762
3	0.015	-0.16372	0.99941	-0.13121	-0.17651	0.99252	0.063694	-0.41271	0.96122	-0.096033	-0.40695	0.96256	-0.0045678	-0.29593	0.49805	0.11512	-0.27065	0.48759	0.009661	-0.24932	0.69115	0.13951	-0.31735	0.68819	0.13089	-0.27878	0.64509	0.13603	-0.33604	0.11341	0.11504	-0.30091	0.11391	0.041999	-0.27034	0.29796	0.095226	-0.32345	0.30439	0.13778	-0.29857	0.25949	0.124	-0.15518	0.053977	0.10974	-0.3854	0.040351	0.07119	-0.29962	0.036026	0.1597	-0.32167	0.50386	-0.1991	-0.291	0.49214	-0.080793	-0.28676	0.66926	-0.2182	-0.34188	0.65641	-0.18635	-0.30529	0.61487	-0.20903	-0.32466	0.12088	-0.20121	-0.29806	0.11239	-0.12839	-0.27061	0.31621	-0.17166	-0.31683	0.31238	-0.21841	-0.28871	0.26689	-0.19878	-0.17954	0.055918	-0.188	-0.38219	0.044933	-0.14662	-0.26347	0.030368	-0.26989	0.47961	0.045358	-0.63449	-0.36805	0.036813	-0.63311	-0.40102	0.033383	0.62949	0.51645	0.049358	0.61822	-0.22652	1.3737	-0.035495	-0.32062	1.386	0.15653	-0.32785	1.4004	-0.23447	-0.34346	1.4869	-0.040829	-0.3128	1.0772	-0.27985	-0.30274	1.1703	-0.26707	-0.19925	0.82567	-0.24684	-0.25798	0.8169	-0.29465	-0.24166	0.94233	-0.28459	-0.19791	0.77846	-0.29818	-0.31614	1.072	0.21068	-0.30309	1.1899	0.19165	-0.18671	0.82061	0.1905	-0.25712	0.80916	0.21957	-0.24763	0.956	0.22161	-0.20451	0.76868	0.23759
4	0.02	-0.16362	0.9994	-0.13121	-0.17646	0.99249	0.063689	-0.41263	0.96124	-0.096118	-0.40687	0.96257	-0.0046508	-0.29604	0.49802	0.11504	-0.27076	0.48759	0.0096307	-0.24933	0.69116	0.13941	-0.31737	0.68829	0.13083	-0.27887	0.64511	0.136	-0.33601	0.11343	0.11501	-0.30093	0.11392	0.042013	-0.27044	0.29798	0.095136	-0.32353	0.3044	0.13777	-0.29864	0.25949	0.12401	-0.1552	0.053989	0.10976	-0.38533	0.040349	0.071135	-0.2996	0.036047	0.15973	-0.3215	0.50385	-0.19909	-0.29093	0.49215	-0.080823	-0.28665	0.66926	-0.2182	-0.34174	0.65646	-0.18636	-0.30523	0.61488	-0.20911	-0.32463	0.12088	-0.2012	-0.29809	0.11238	-0.12838	-0.27057	0.31622	-0.17166	-0.31679	0.31237	-0.21842	-0.28867	0.26688	-0.19879	-0.17952	0.055918	-0.18799	-0.38221	0.044943	-0.14657	-0.26348	0.030364	-0.26989	0.47962	0.045352	-0.63455	-0.36804	0.03683	-0.63312	-0.40104	0.033392	0.62951	0.51643	0.049347	0.61823	-0.22648	1.3737	-0.035501	-0.32058	1.386	0.15654	-0.32778	1.4004	-0.23448	-0.34341	1.4869	-0.040811	-0.31263	1.0772	-0.27986	-0.30259	1.1702	-0.26708	-0.19906	0.82566	-0.24682	-0.25778	0.81688	-0.29466	-0.2414	0.94234	-0.28455	-0.19774	0.77841	-0.29817	-0.31616	1.072	0.21067	-0.30311	1.1899	0.19162	-0.18666	0.8206	0.19048	-0.25707	0.80914	0.21953	-0.24764	0.95596	0.2216	-0.20446	0.76865	0.23755
5	0.025	-0.16353	0.9994	-0.13119	-0.17642	0.99246	0.06368	-0.41256	0.96126	-0.096188	-0.40682	0.96257	-0.0047536	-0.29603	0.49803	0.11522	-0.27087	0.48761	0.0095931	-0.24938	0.69115	0.13943	-0.31741	0.6883	0.13079	-0.27893	0.64511	0.13593	-0.33603	0.11341	0.11501	-0.30094	0.11393	0.041977	-0.27052	0.29798	0.095105	-0.32359	0.30442	0.13776	-0.29868	0.25951	0.124	-0.15519	0.05396	0.10974	-0.38539	0.040349	0.071158	-0.29961	0.03605	0.1597	-0.32139	0.50385	-0.1991	-0.29092	0.49217	-0.080824	-0.28655	0.66925	-0.21822	-0.34158	0.65648	-0.18666	-0.30512	0.6151	-0.20938	-0.32464	0.12089	-0.20121	-0.29808	0.11238	-0.12837	-0.27054	0.31621	-0.17166	-0.31673	0.31238	-0.21844	-0.28863	0.26691	-0.1988	-0.17952	0.055927	-0.18801	-0.38223	0.044953	-0.14658	-0.2635	0.030372	-0.26992	0.47964	0.045359	-0.63457	-0.36804	0.036832	-0.63312	-0.40103	0.033396	0.62949	0.51643	0.049365	0.61821	-0.22642	1.3736	-0.035489	-0.32058	1.386	0.15651	-0.32764	1.4004	-0.23449	-0.34335	1.4869	-0.040834	-0.31246	1.0772	-0.27991	-0.30245	1.1702	-0.26709	-0.19892	0.82563	-0.24683	-0.25755	0.81688	-0.29468	-0.24125	0.94236	-0.28459	-0.19754	0.77839	-0.29816	-0.31612	1.072	0.21064	-0.30313	1.1898	0.19161	-0.18664	0.8206	0.19045	-0.25699	0.80912	0.21946	-0.24763	0.95594	0.2216	-0.20446	0.76862	0.23752
6	0.03	-0.16342	0.99941	-0.13116	-0.1764	0.99248	0.063679	-0.41249	0.96126	-0.096274	-0.40677	0.96256	-0.004807	-0.29621	0.49804	0.11499	-0.27096	0.4876	0.0095538	-0.24943	0.69116	0.1394	-0.31743	0.68832	0.13075	-0.27896	0.6451	0.13593	-0.33604	0.11342	0.11501	-0.30094	0.1139	0.041995	-0.27057	0.298	0.095108	-0.32362	0.30441	0.13774	-0.29872	0.25949	0.12395	-0.15521	0.05398	0.10975	-0.38543	0.040343	0.071185	-0.29965	0.036049	0.1597	-0.3214	0.50387	-0.19915	-0.29081	0.49217	-0.080851	-0.28641	0.66927	-0.21822	-0.34125	0.65676	-0.18749	-0.30499	0.61511	-0.20944	-0.32462	0.12088	-0.20123	-0.29802	0.11238	-0.12843	-0.27051	0.31619	-0.17169	-0.31666	0.31237	-0.21845	-0.28858	0.26689	-0.19881	-0.17954	0.055923	-0.188	-0.38223	0.044953	-0.14658	-0.26348	0.030349	-0.26991	0.47961	0.04539	-0.63444	-0.36804	0.036822	-0.63312	-0.40103	0.033406	0.62949	0.51641	0.049338	0.61825	-0.22636	1.3736	-0.035466	-0.32061	1.3859	0.15649	-0.32756	1.4004	-0.23452	-0.34327	1.4869	-0.040845	-0.31232	1.0772	-0.27991	-0.30231	1.1702	-0.2671	-0.19873	0.82564	-0.2468	-0.25733	0.81686	-0.29467	-0.24116	0.94234	-0.28464	-0.19734	0.77839	-0.29807	-0.31614	1.0719	0.21061	-0.30313	1.1898	0.19161	-0.18658	0.82061	0.19044	-0.25701	0.80909	0.21946	-0.24763	0.95593	0.22159	-0.2044	0.7686	0.23747
7	0.035	-0.16331	0.9994	-0.13117	-0.17635	0.99246	0.063691	-0.41244	0.96126	-0.096347	-0.40671	0.96256	-0.0048877	-0.29627	0.49803	0.11497	-0.27103	0.4876	0.0095534	-0.24944	0.69116	0.13938	-0.31749	0.68835	0.1307	-0.27901	0.6451	0.13593	-0.33604	0.11341	0.11501	-0.30095	0.11391	0.042017	-0.27059	0.29799	0.095071	-0.32367	0.30442	0.13774	-0.29875	0.25952	0.12395	-0.15524	0.05397	0.10976	-0.38536	0.04033	0.071149	-0.29967	0.036046	0.15971	-0.32139	0.5039	-0.19921	-0.29075	0.49217	-0.08086	-0.28626	0.66928	-0.21829	-0.34114	0.65687	-0.18728	-0.30491	0.61525	-0.20957	-0.32465	0.12088	-0.20123	-0.29808	0.11238	-0.12838	-0.27044	0.3162	-0.1717	-0.31667	0.31237	-0.21849	-0.28857	0.26688	-0.19883	-0.1795	0.055909	-0.18801	-0.38221	0.044931	-0.14658	-0.26349	0.030371	-0.26992	0.47963	0.04535	-0.63459	-0.36806	0.036827	-0.63311	-0.40104	0.033394	0.62946	0.51644	0.049362	0.61824	-0.22629	1.3736	-0.035445	-0.32057	1.3859	0.1565	-0.32743	1.4004	-0.23453	-0.34327	1.487	-0.040617	-0.31214	1.0772	-0.27995	-0.30218	1.1702	-0.26713	-0.19852	0.82568	-0.24675	-0.25713	0.81686	-0.29469	-0.24094	0.94234	-0.2846	-0.19712	0.77837	-0.29806	-0.31612	1.0719	0.21059	-0.30309	1.1898	0.19158	-0.18655	0.82059	0.19043	-0.25676	0.8091	0.2193	-0.24765	0.9559	0.22158	-0.20437	0.76857	0.23746
8	0.04	-0.16323	0.99939	-0.13114	-0.1763	0.99243	0.063694	-0.41235	0.96127	-0.096434	-0.40668	0.96256	-0.0049803	-0.2963	0.49805	0.11494	-0.27105	0.4876	0.0095199	-0.24949	0.69116	0.1394	-0.31747	0.68836	0.1306	-0.27896	0.64512	0.13587	-0.33601	0.11345	0.11504	-0.30099	0.11392	0.042014	-0.27062	0.29799	0.095051	-0.32367	0.30442	0.13773	-0.29876	0.25952	0.12391	-0.15518	0.054006	0.10973	-0.38537	0.040339	0.071162	-0.29961	0.036062	0.1597	-0.32124	0.50388	-0.19921	-0.29072	0.49217	-0.080898	-0.28616	0.66927	-0.21832	-0.34104	0.65687	-0.18724	-0.30481	0.61532	-0.20959	-0.3246	0.12088	-0.20121	-0.29803	0.11239	-0.12839	-0.2704	0.31619	-0.17173	-0.3166	0.31238	-0.21849	-0.28853	0.26688	-0.19884	-0.17953	0.055918	-0.18798	-0.38219	0.044921	-0.1466	-0.26346	0.030377	-0.26991	0.47962	0.045368	-0.63451	-0.36805	0.036808	-0.63312	-0.40103	0.033387	0.62949	0.51642	0.049361	0.61823	-0.22621	1.3736	-0.035446	-0.32055	1.3859	0.15648	-0.32729	1.4004	-0.23455	-0.34321	1.487	-0.04062	-0.31195	1.0772	-0.27997	-0.30206	1.1702	-0.26715	-0.19835	0.82568	-0.24674	-0.25694	0.81687	-0.29471	-0.24078	0.94235	-0.28464	-0.1969	0.77837	-0.29801	-0.31611	1.0719	0.21057	-0.30306	1.1897	0.19156	-0.18649	0.82061	0.19042	-0.2569	0.80906	0.21938	-0.2476	0.95588	0.22153	-0.20433	0.76855	0.23744
9	0.045	-0.16313	0.99941	-0.13115	-0.17631	0.99242	0.063706	-0.41225	0.96127	-0.096528	-0.40665	0.96257	-0.0050589	-0.29632	0.49806	0.11496	-0.27107	0.48762	0.009509	-0.24951	0.69115	0.13943	-0.31748	0.68838	0.13056	-0.27899	0.64514	0.13588	-0.33605	0.11343	0.11505	-0.30097	0.11393	0.042019	-0.27066	0.29801	0.095049	-0.32367	0.30443	0.13773	-0.29877	0.25953	0.12396	-0.15522	0.053977	0.10975	-0.38539	0.040328	0.071161	-0.29963	0.03606	0.1597	-0.32114	0.50386	-0.19923	-0.29069	0.49217	-0.080903	-0.28606	0.66928	-0.21834	-0.34091	0.65682	-0.18754	-0.30469	0.61528	-0.20953	-0.32462	0.12087	-0.20125	-0.29807	0.11239	-0.12837	-0.27037	0.3162	-0.17172	-0.31653	0.31237	-0.21851	-0.2885	0.26689	-0.19885	-0.17951	0.055923	-0.188	-0.38219	0.044958	-0.14658	-0.26347	0.030368	-0.26989	0.47962	0.045352	-0.63456	-0.36805	0.036843	-0.63312	-0.40105	0.033402	0.62946	0.51643	0.049362	0.61822	-0.22617	1.3736	-0.035418	-0.32054	1.3859	0.15648	-0.32717	1.4004	-0.23455	-0.34314	1.487	-0.040644	-0.31179	1.0772	-0.28	-0.30191	1.1702	-0.26718	-0.19821	0.82568	-0.24672	-0.25674	0.81685	-0.29472	-0.2406	0.94235	-0.2846	-0.19666	0.77839	-0.29797	-0.31609	1.0719	0.21053	-0.30303	1.1897	0.19154	-0.18643	0.82061	0.19039	-0.25683	0.80905	0.21935	-0.24756	0.95587	0.22152	-0.20427	0.76853	0.2374
